<?xml version="1.0" encoding="iso-8859-1"?>
<!-- Generator: Adobe Illustrator 16.0.0, SVG Export Plug-In . SVG Version: 6.00 Build 0)  -->
<!DOCTYPE svg PUBLIC "-//W3C//DTD SVG 1.1//EN" "http://www.w3.org/Graphics/SVG/1.1/DTD/svg11.dtd">
<svg version="1.1" id="Capa_1" xmlns="http://www.w3.org/2000/svg" xmlns:xlink="http://www.w3.org/1999/xlink" x="0px" y="0px"
	 width="45.166px" height="45.166px" viewBox="0 0 45.166 45.166" style="enable-background:new 0 0 45.166 45.166;"
	 xml:space="preserve">
<g>
	<g>
		<path d="M42.187,19.501C41.59,8.383,33.161,0,22.583,0C12.004,0,3.576,8.383,2.978,19.501c-0.261,4.847-2.11,19.521-2.129,19.668
			c-0.088,0.696,0.195,1.388,0.746,1.821c0.542,0.427,5.737,4.176,21.072,4.176c15.083,0,20.341-3.739,20.891-4.166
			c0.561-0.434,0.85-1.129,0.759-1.831C44.299,39.021,42.45,24.35,42.187,19.501z M32.921,16.422
			c2.348,0.305,3.954,2.663,3.601,5.119c-0.352,2.46-2.345,4.123-4.462,3.85c-6.298-0.82-12.656-0.82-18.954,0
			c-2.117,0.272-4.11-1.39-4.462-3.85c-0.353-2.457,1.254-4.814,3.601-5.119C19.116,15.526,26.05,15.526,32.921,16.422z"/>
		<circle cx="16.098" cy="21.031" r="2.171"/>
		<circle cx="29.066" cy="21.031" r="2.171"/>
	</g>
</g>
<g>
</g>
<g>
</g>
<g>
</g>
<g>
</g>
<g>
</g>
<g>
</g>
<g>
</g>
<g>
</g>
<g>
</g>
<g>
</g>
<g>
</g>
<g>
</g>
<g>
</g>
<g>
</g>
<g>
</g>
</svg>
